<svg width="24" height="24" viewBox="0 0 24 24" fill="none" xmlns="http://www.w3.org/2000/svg">
<path fill-rule="evenodd" clip-rule="evenodd" d="M12 3.75C7.44365 3.75 3.75 7.44365 3.75 12C3.75 16.5563 7.44365 20.25 12 20.25C16.5563 20.25 20.25 16.5563 20.25 12C20.25 7.44365 16.5563 3.75 12 3.75ZM2.25 12C2.25 6.61522 6.61522 2.25 12 2.25C17.3848 2.25 21.75 6.61522 21.75 12C21.75 17.3848 17.3848 21.75 12 21.75C6.61522 21.75 2.25 17.3848 2.25 12Z" fill="#0F0F0F" fill-opacity="0.7"/>
<path fill-rule="evenodd" clip-rule="evenodd" d="M9 8.25C9 7.83578 9.33578 7.5 9.75 7.5H12.75C13.5457 7.5 14.3087 7.81605 14.8713 8.3787C15.4339 8.94128 15.75 9.70432 15.75 10.5C15.75 11.2957 15.4339 12.0587 14.8713 12.6213C14.3087 13.1839 13.5457 13.5 12.75 13.5H10.5V15.75C10.5 16.1642 10.1642 16.5 9.75 16.5C9.33578 16.5 9 16.1642 9 15.75V8.25ZM10.5 12H12.75C13.1478 12 13.5293 11.842 13.8106 11.5606C14.092 11.2793 14.25 10.8978 14.25 10.5C14.25 10.1022 14.092 9.72068 13.8106 9.43935C13.5293 9.15803 13.1478 9 12.75 9H10.5V12Z" fill="#0F0F0F" fill-opacity="0.7"/>
<path fill-rule="evenodd" clip-rule="evenodd" d="M12.4707 12.1255C12.8104 11.8885 13.278 11.9716 13.515 12.3113L15.615 15.3207C15.852 15.6604 15.7689 16.1279 15.4291 16.365C15.0894 16.602 14.622 16.5188 14.3849 16.1791L12.2849 13.1698C12.0479 12.83 12.1311 12.3625 12.4707 12.1255Z" fill="#0F0F0F" fill-opacity="0.7"/>
</svg>
